<?xml version="1.0" encoding="UTF-8"?>
<svg xmlns="http://www.w3.org/2000/svg" xmlns:xlink="http://www.w3.org/1999/xlink" width="20px" height="20px" viewBox="0 0 20 20" version="1.1">
<g id="surface1">
<path style=" stroke:none;fill-rule:nonzero;fill:rgb(0%,0%,0%);fill-opacity:1;" d="M 0.742188 4.671875 L 5.425781 4.671875 L 5.425781 0 L 0.742188 0 Z M 1.558594 0.816406 L 4.605469 0.816406 L 4.605469 3.863281 L 1.558594 3.863281 Z M 1.558594 0.816406 "/>
<path style=" stroke:none;fill-rule:nonzero;fill:rgb(0%,0%,0%);fill-opacity:1;" d="M 0.742188 9.800781 L 5.425781 9.800781 L 5.425781 5.117188 L 0.742188 5.117188 Z M 1.558594 5.9375 L 4.605469 5.9375 L 4.605469 8.984375 L 1.558594 8.984375 Z M 1.558594 5.9375 "/>
<path style=" stroke:none;fill-rule:nonzero;fill:rgb(0%,0%,0%);fill-opacity:1;" d="M 0.742188 14.898438 L 5.425781 14.898438 L 5.425781 10.21875 L 0.742188 10.21875 Z M 1.558594 11.035156 L 4.605469 11.035156 L 4.605469 14.082031 L 1.558594 14.082031 Z M 1.558594 11.035156 "/>
<path style=" stroke:none;fill-rule:nonzero;fill:rgb(0%,0%,0%);fill-opacity:1;" d="M 0.742188 20 L 5.425781 20 L 5.425781 15.316406 L 0.742188 15.316406 Z M 1.558594 16.136719 L 4.605469 16.136719 L 4.605469 19.183594 L 1.558594 19.183594 Z M 1.558594 16.136719 "/>
<path style=" stroke:none;fill-rule:nonzero;fill:rgb(0%,0%,0%);fill-opacity:1;" d="M 6.675781 0.9375 L 18.949219 0.9375 L 18.949219 1.855469 L 6.675781 1.855469 Z M 6.675781 0.9375 "/>
<path style=" stroke:none;fill-rule:nonzero;fill:rgb(0%,0%,0%);fill-opacity:1;" d="M 6.675781 2.574219 L 15.488281 2.574219 L 15.488281 3.492188 L 6.675781 3.492188 Z M 6.675781 2.574219 "/>
<path style=" stroke:none;fill-rule:nonzero;fill:rgb(0%,0%,0%);fill-opacity:1;" d="M 6.675781 5.78125 L 18.949219 5.78125 L 18.949219 6.699219 L 6.675781 6.699219 Z M 6.675781 5.78125 "/>
<path style=" stroke:none;fill-rule:nonzero;fill:rgb(0%,0%,0%);fill-opacity:1;" d="M 6.675781 7.40625 L 15.488281 7.40625 L 15.488281 8.324219 L 6.675781 8.324219 Z M 6.675781 7.40625 "/>
<path style=" stroke:none;fill-rule:nonzero;fill:rgb(0%,0%,0%);fill-opacity:1;" d="M 6.976562 11.019531 L 19.257812 11.019531 L 19.257812 11.9375 L 6.976562 11.9375 Z M 6.976562 11.019531 "/>
<path style=" stroke:none;fill-rule:nonzero;fill:rgb(0%,0%,0%);fill-opacity:1;" d="M 6.976562 12.65625 L 15.796875 12.65625 L 15.796875 13.574219 L 6.976562 13.574219 Z M 6.976562 12.65625 "/>
<path style=" stroke:none;fill-rule:nonzero;fill:rgb(0%,0%,0%);fill-opacity:1;" d="M 6.976562 16.015625 L 19.257812 16.015625 L 19.257812 16.933594 L 6.976562 16.933594 Z M 6.976562 16.015625 "/>
<path style=" stroke:none;fill-rule:nonzero;fill:rgb(0%,0%,0%);fill-opacity:1;" d="M 6.976562 17.652344 L 15.796875 17.652344 L 15.796875 18.570312 L 6.976562 18.570312 Z M 6.976562 17.652344 "/>
</g>
</svg>
