<svg width="101" height="101" viewBox="0 0 101 101" fill="none" xmlns="http://www.w3.org/2000/svg">
                                    <path d="M72.2304 27.937C75.3526 30.8485 77.8452 34.3689 79.5543 38.2809C81.2634 42.1929 82.1529 46.4137 82.1678 50.6827C82.1827 54.9518 81.3227 59.1786 79.641 63.1025C77.9592 67.0264 75.4913 70.564 72.3895 73.4973M63.7054 37.0789C65.5788 38.8258 67.0743 40.9381 68.0998 43.2853C69.1252 45.6325 69.6589 48.1649 69.6679 50.7264C69.6768 53.2878 69.1608 55.8239 68.1518 58.1782C67.1427 60.5325 65.6619 62.6551 63.8009 64.4151M36.7939 61.4383L42.029 67.9167C44.7581 71.2939 46.1226 72.9825 47.3181 73.1663C48.3529 73.3255 49.3987 72.9557 50.1037 72.1815C50.918 71.2872 50.918 69.1161 50.918 64.7741V36.8095C50.918 32.4675 50.918 30.2965 50.1037 29.4021C49.3987 28.6279 48.3529 28.2582 47.3181 28.4173C46.1226 28.6011 44.7581 30.2897 42.029 33.6669L36.7939 40.1453C36.2426 40.8276 35.9669 41.1687 35.6258 41.4142C35.3237 41.6317 34.9851 41.7934 34.626 41.8917C34.2207 42.0028 33.7821 42.0027 32.9049 42.0027H28.457C26.0939 42.0027 24.9123 42.0027 23.9575 42.3182C22.0783 42.939 20.6042 44.4131 19.9834 46.2922C19.668 47.2471 19.668 48.4287 19.668 50.7918C19.668 53.1549 19.668 54.3365 19.9834 55.2914C20.6042 57.1705 22.0783 58.6446 23.9575 59.2654C24.9123 59.5809 26.0939 59.5809 28.457 59.5809H32.9049C33.7821 59.5809 34.2207 59.5809 34.626 59.6919C34.9851 59.7902 35.3237 59.952 35.6258 60.1694C35.9669 60.4149 36.2426 60.756 36.7939 61.4383Z" stroke="#161616" stroke-width="4" stroke-linecap="round" stroke-linejoin="round"></path>
                                </svg>