        <svg width="101" height="100" viewBox="0 0 101 100" fill="none" xmlns="http://www.w3.org/2000/svg">
                                    <path d="M50.082 40.8325V76.2492M50.082 40.8325C50.082 34.9986 50.082 32.0829 51.2174 29.8546C52.2161 27.8946 53.8085 26.3005 55.7685 25.3019C57.9967 24.1665 60.9141 24.1665 66.748 24.1665H75.7758C77.7204 24.1665 78.6934 24.1665 79.4362 24.545C80.0895 24.8778 80.6194 25.4086 80.9523 26.062C81.3307 26.8047 81.332 27.7778 81.332 29.7224V60.278C81.332 62.2226 81.3307 63.1935 80.9523 63.9363C80.6194 64.5896 80.0906 65.1222 79.4373 65.4551C78.6953 65.8332 77.7244 65.8332 75.7835 65.8332H65.9478C62.6866 65.8332 61.0531 65.8332 59.573 66.2827C58.2627 66.6806 57.0461 67.3322 55.9882 68.2017C54.7932 69.1839 53.8877 70.5406 52.0787 73.254L50.082 76.2492M50.082 40.8325C50.082 34.9986 50.0814 32.0829 48.9461 29.8546C47.9474 27.8946 46.3538 26.3005 44.3938 25.3019C42.1655 24.1665 39.2479 24.1665 33.414 24.1665H24.3862C22.4416 24.1665 21.4703 24.1665 20.7275 24.545C20.0742 24.8778 19.5434 25.4086 19.2105 26.062C18.832 26.8047 18.832 27.7778 18.832 29.7224V60.278C18.832 62.2226 18.832 63.1935 19.2105 63.9363C19.5434 64.5896 20.0742 65.1222 20.7275 65.4551C21.4695 65.8332 22.4397 65.8332 24.3805 65.8332H34.2165C37.4777 65.8332 39.1078 65.8332 40.5879 66.2827C41.8982 66.6806 43.1206 67.3322 44.1786 68.2017C45.3687 69.1799 46.2686 70.5296 48.0629 73.2211L50.082 76.2492" stroke="#161616" stroke-width="4" stroke-linecap="round" stroke-linejoin="round"></path>
                                </svg>