 <svg width="101" height="100" viewBox="0 0 101 100" fill="none" xmlns="http://www.w3.org/2000/svg">
                                    <path d="M35.3269 77.5059C39.9154 80.1523 45.2392 81.6663 50.9167 81.6663C68.1756 81.6663 82.168 67.6754 82.168 50.4165C82.168 33.1576 68.1769 19.1665 50.918 19.1665C33.6591 19.1665 19.668 33.1576 19.668 50.4165C19.668 56.094 21.182 61.4178 23.8284 66.0064L23.8386 66.0241C24.0932 66.4656 24.2216 66.6882 24.2798 66.8986C24.3347 67.0971 24.35 67.2755 24.3359 67.4809C24.3208 67.7016 24.2464 67.9305 24.0939 68.388L21.4244 76.3965L21.4211 76.4071C20.8578 78.0968 20.5762 78.9417 20.7769 79.5046C20.952 79.9954 21.3405 80.3828 21.8313 80.5579C22.393 80.7582 23.2341 80.4778 24.9164 79.917L24.9373 79.9093L32.9459 77.2398C33.4019 77.0878 33.6337 77.0107 33.8541 76.9956C34.0595 76.9816 34.2366 77.0001 34.4351 77.055C34.646 77.1133 34.8688 77.2417 35.3125 77.4977L35.3269 77.5059Z" stroke="#161616" stroke-width="4" stroke-linecap="round" stroke-linejoin="round"></path>
                                </svg>